<svg width="20" height="20" viewBox="0 0 20 20" fill="none" xmlns="http://www.w3.org/2000/svg">
<g clip-path="url(#clip0_67_215)">
<path d="M13.75 5V14.5833C13.75 16.425 12.2583 17.9167 10.4167 17.9167C8.57501 17.9167 7.08334 16.425 7.08334 14.5833V4.16666C7.08334 3.01666 8.01668 2.08333 9.16668 2.08333C10.3167 2.08333 11.25 3.01666 11.25 4.16666V12.9167C11.25 13.375 10.875 13.75 10.4167 13.75C9.95834 13.75 9.58334 13.375 9.58334 12.9167V5H8.33334V12.9167C8.33334 14.0667 9.26668 15 10.4167 15C11.5667 15 12.5 14.0667 12.5 12.9167V4.16666C12.5 2.32499 11.0083 0.833328 9.16668 0.833328C7.32501 0.833328 5.83334 2.32499 5.83334 4.16666V14.5833C5.83334 17.1167 7.88334 19.1667 10.4167 19.1667C12.95 19.1667 15 17.1167 15 14.5833V5H13.75Z" fill="currentColor"/>
</g>
</svg>
