<svg width="20" height="20" viewBox="0 0 20 20" fill="none" xmlns="http://www.w3.org/2000/svg">
<path d="M9.99992 12.6666C11.4727 12.6666 12.6666 11.4727 12.6666 9.99998C12.6666 8.52722 11.4727 7.33331 9.99992 7.33331C8.52716 7.33331 7.33325 8.52722 7.33325 9.99998C7.33325 11.4727 8.52716 12.6666 9.99992 12.6666Z" fill="currentColor"/>
<path d="M7.50008 1.66669L5.97508 3.33335H3.33341C2.41675 3.33335 1.66675 4.08335 1.66675 5.00002V15C1.66675 15.9167 2.41675 16.6667 3.33341 16.6667H16.6667C17.5834 16.6667 18.3334 15.9167 18.3334 15V5.00002C18.3334 4.08335 17.5834 3.33335 16.6667 3.33335H14.0251L12.5001 1.66669H7.50008ZM10.0001 14.1667C7.70008 14.1667 5.83341 12.3 5.83341 10C5.83341 7.70002 7.70008 5.83335 10.0001 5.83335C12.3001 5.83335 14.1667 7.70002 14.1667 10C14.1667 12.3 12.3001 14.1667 10.0001 14.1667Z" fill="currentColor"/>
</svg>
